<svg width="464" height="72" viewBox="0 0 464 72" fill="none" xmlns="http://www.w3.org/2000/svg">
<path d="M34.0077 50H32.4477V34.92H16.8477V50H15.2877V19.84H16.8477V33.36H32.4477V19.84H34.0077V50ZM64.0535 46.932C62.1468 49.324 59.0268 50.52 54.6935 50.52C50.3602 50.52 47.2575 49.2893 45.3855 46.828C43.5135 44.3667 42.5775 40.3973 42.5775 34.92C42.5775 29.4427 43.5135 25.4733 45.3855 23.012C47.2575 20.5507 50.3602 19.32 54.6935 19.32C59.7202 19.32 63.1348 20.9667 64.9375 24.26L52.1975 34.92H49.7535L62.9095 23.948C61.3842 21.9027 58.6455 20.88 54.6935 20.88C52.9602 20.88 51.5042 21.0707 50.3255 21.452C49.1468 21.7987 48.0548 22.4747 47.0495 23.48C46.0788 24.4507 45.3508 25.8893 44.8655 27.796C44.3802 29.668 44.1375 32.0427 44.1375 34.92C44.1375 37.7973 44.3802 40.1893 44.8655 42.096C45.3508 43.968 46.0788 45.4067 47.0495 46.412C48.0548 47.3827 49.1468 48.0587 50.3255 48.44C51.5042 48.7867 52.9602 48.96 54.6935 48.96C58.6455 48.96 61.3842 47.9373 62.9095 45.892L64.0535 46.932ZM85.0538 34.868L92.1258 50H90.4098L83.1298 34.4C83.1991 34.3653 83.4938 34.2267 84.0138 33.984C84.5684 33.7067 84.9498 33.516 85.1578 33.412C85.3658 33.2733 85.7124 33.048 86.1978 32.736C86.6831 32.424 87.0471 32.1293 87.2898 31.852C87.5324 31.54 87.7924 31.1933 88.0698 30.812C88.3818 30.396 88.6071 29.9453 88.7458 29.46C88.8844 28.94 88.9538 28.3853 88.9538 27.796C88.9538 25.612 87.9138 24 85.8338 22.96C83.7538 21.92 81.1711 21.4 78.0858 21.4H73.9258V50H72.3658V19.84H78.0858C82.1764 19.84 85.2618 20.5507 87.3418 21.972C89.4564 23.3933 90.5138 25.3347 90.5138 27.796C90.5138 29.3907 89.9764 30.812 88.9018 32.06C87.8271 33.2733 86.5444 34.2093 85.0538 34.868ZM104.066 48.44H124.138V22.024L112.438 33.724L100.738 22.024V50L99.1783 49.948V19.84H100.738L112.438 31.54L124.138 19.84H125.698V50L104.066 49.948V48.44ZM155.764 46.932C153.858 49.324 150.738 50.52 146.404 50.52C142.071 50.52 138.968 49.2893 137.096 46.828C135.224 44.3667 134.288 40.3973 134.288 34.92C134.288 29.4427 135.224 25.4733 137.096 23.012C138.968 20.5507 142.071 19.32 146.404 19.32C151.431 19.32 154.846 20.9667 156.648 24.26L143.908 34.92H141.464L154.62 23.948C153.095 21.9027 150.356 20.88 146.404 20.88C144.671 20.88 143.215 21.0707 142.036 21.452C140.858 21.7987 139.766 22.4747 138.76 23.48C137.79 24.4507 137.062 25.8893 136.576 27.796C136.091 29.668 135.848 32.0427 135.848 34.92C135.848 37.7973 136.091 40.1893 136.576 42.096C137.062 43.968 137.79 45.4067 138.76 46.412C139.766 47.3827 140.858 48.0587 142.036 48.44C143.215 48.7867 144.671 48.96 146.404 48.96C150.356 48.96 153.095 47.9373 154.62 45.892L155.764 46.932ZM172.033 19.216C176.331 19.216 179.382 20.1693 181.185 22.076L180.145 23.22C178.481 21.5907 175.846 20.776 172.241 20.776C166.833 20.776 164.129 22.9253 164.129 27.224C164.129 28.888 164.787 30.2227 166.105 31.228C167.422 32.1987 169.017 32.944 170.889 33.464C172.795 33.984 174.685 34.5387 176.557 35.128C178.463 35.6827 180.075 36.6013 181.393 37.884C182.71 39.132 183.369 40.7787 183.369 42.824C183.369 45.216 182.381 47.1227 180.405 48.544C178.429 49.9653 175.569 50.676 171.825 50.676C169.987 50.676 168.167 50.4333 166.365 49.948C164.597 49.4627 163.279 48.752 162.413 47.816L163.453 46.672C165.221 48.3013 167.942 49.116 171.617 49.116C174.979 49.116 177.51 48.492 179.209 47.244C180.942 45.996 181.809 44.54 181.809 42.876C181.809 41.1427 181.15 39.7387 179.833 38.664C178.515 37.5893 176.903 36.792 174.997 36.272C173.125 35.7173 171.235 35.1627 169.329 34.608C167.457 34.0187 165.862 33.1173 164.545 31.904C163.227 30.6907 162.569 29.096 162.569 27.12C162.569 24.4507 163.453 22.4747 165.221 21.192C167.023 19.8747 169.294 19.216 172.033 19.216Z" fill="#68DBFF"/>
<path d="M290.896 19.216C295.195 19.216 298.245 20.1693 300.048 22.076L299.008 23.22C297.344 21.5907 294.709 20.776 291.104 20.776C285.696 20.776 282.992 22.9253 282.992 27.224C282.992 28.888 283.651 30.2227 284.968 31.228C286.285 32.1987 287.88 32.944 289.752 33.464C291.659 33.984 293.548 34.5387 295.42 35.128C297.327 35.6827 298.939 36.6013 300.256 37.884C301.573 39.132 302.232 40.7787 302.232 42.824C302.232 45.216 301.244 47.1227 299.268 48.544C297.292 49.9653 294.432 50.676 290.688 50.676C288.851 50.676 287.031 50.4333 285.228 49.948C283.46 49.4627 282.143 48.752 281.276 47.816L282.316 46.672C284.084 48.3013 286.805 49.116 290.48 49.116C293.843 49.116 296.373 48.492 298.072 47.244C299.805 45.996 300.672 44.54 300.672 42.876C300.672 41.1427 300.013 39.7387 298.696 38.664C297.379 37.5893 295.767 36.792 293.86 36.272C291.988 35.7173 290.099 35.1627 288.192 34.608C286.32 34.0187 284.725 33.1173 283.408 31.904C282.091 30.6907 281.432 29.096 281.432 27.12C281.432 24.4507 282.316 22.4747 284.084 21.192C285.887 19.8747 288.157 19.216 290.896 19.216ZM311.311 46.828C309.439 44.3667 308.503 40.3973 308.503 34.92C308.503 29.4427 309.439 25.4733 311.311 23.012C313.183 20.5507 316.286 19.32 320.619 19.32C324.953 19.32 328.073 20.516 329.979 22.908L328.835 23.948C327.31 21.9027 324.571 20.88 320.619 20.88C318.886 20.88 317.43 21.0707 316.251 21.452C315.073 21.7987 313.981 22.4747 312.975 23.48C312.005 24.4507 311.277 25.8893 310.791 27.796C310.306 29.668 310.063 32.0427 310.063 34.92C310.063 37.7973 310.306 40.1893 310.791 42.096C311.277 43.968 312.005 45.4067 312.975 46.412C313.981 47.3827 315.073 48.0587 316.251 48.44C317.43 48.7867 318.886 48.96 320.619 48.96C324.571 48.96 327.31 47.9373 328.835 45.892L329.979 46.932C328.073 49.324 324.953 50.52 320.619 50.52C316.286 50.52 313.183 49.2893 311.311 46.828ZM337.733 19.84H339.293V50H337.733V19.84ZM369.335 46.932C367.428 49.324 364.308 50.52 359.975 50.52C355.641 50.52 352.539 49.2893 350.667 46.828C348.795 44.3667 347.859 40.3973 347.859 34.92C347.859 29.4427 348.795 25.4733 350.667 23.012C352.539 20.5507 355.641 19.32 359.975 19.32C365.001 19.32 368.416 20.9667 370.219 24.26L357.479 34.92H355.035L368.191 23.948C366.665 21.9027 363.927 20.88 359.975 20.88C358.241 20.88 356.785 21.0707 355.607 21.452C354.428 21.7987 353.336 22.4747 352.331 23.48C351.36 24.4507 350.632 25.8893 350.147 27.796C349.661 29.668 349.419 32.0427 349.419 34.92C349.419 37.7973 349.661 40.1893 350.147 42.096C350.632 43.968 351.36 45.4067 352.331 46.412C353.336 47.3827 354.428 48.0587 355.607 48.44C356.785 48.7867 358.241 48.96 359.975 48.96C363.927 48.96 366.665 47.9373 368.191 45.892L369.335 46.932ZM377.647 50V19.84H379.207L396.159 47.14V19.84H397.719V50H396.159L379.207 22.648V50H377.647ZM409.116 46.828C407.244 44.3667 406.308 40.3973 406.308 34.92C406.308 29.4427 407.244 25.4733 409.116 23.012C410.988 20.5507 414.091 19.32 418.424 19.32C422.757 19.32 425.877 20.516 427.784 22.908L426.64 23.948C425.115 21.9027 422.376 20.88 418.424 20.88C416.691 20.88 415.235 21.0707 414.056 21.452C412.877 21.7987 411.785 22.4747 410.78 23.48C409.809 24.4507 409.081 25.8893 408.596 27.796C408.111 29.668 407.868 32.0427 407.868 34.92C407.868 37.7973 408.111 40.1893 408.596 42.096C409.081 43.968 409.809 45.4067 410.78 46.412C411.785 47.3827 412.877 48.0587 414.056 48.44C415.235 48.7867 416.691 48.96 418.424 48.96C422.376 48.96 425.115 47.9373 426.64 45.892L427.784 46.932C425.877 49.324 422.757 50.52 418.424 50.52C414.091 50.52 410.988 49.2893 409.116 46.828ZM455.714 46.932C453.807 49.324 450.687 50.52 446.354 50.52C442.02 50.52 438.918 49.2893 437.046 46.828C435.174 44.3667 434.238 40.3973 434.238 34.92C434.238 29.4427 435.174 25.4733 437.046 23.012C438.918 20.5507 442.02 19.32 446.354 19.32C451.38 19.32 454.795 20.9667 456.598 24.26L443.858 34.92H441.414L454.57 23.948C453.044 21.9027 450.306 20.88 446.354 20.88C444.62 20.88 443.164 21.0707 441.986 21.452C440.807 21.7987 439.715 22.4747 438.71 23.48C437.739 24.4507 437.011 25.8893 436.526 27.796C436.04 29.668 435.798 32.0427 435.798 34.92C435.798 37.7973 436.04 40.1893 436.526 42.096C437.011 43.968 437.739 45.4067 438.71 46.412C439.715 47.3827 440.807 48.0587 441.986 48.44C443.164 48.7867 444.62 48.96 446.354 48.96C450.306 48.96 453.044 47.9373 454.57 45.892L455.714 46.932Z" fill="#68DBFF"/>
<path d="M232 1C251.33 1 267 16.67 267 36C267 55.33 251.33 71 232 71C212.67 71 197 55.33 197 36C197 16.67 212.67 1 232 1Z" fill="#0B1E33" stroke="url(#paint0_linear_2476_145)" stroke-width="2"/>
<path d="M215.622 42.0403C219.095 42.0403 221.911 39.322 221.911 35.9689C221.911 32.6157 219.095 29.8975 215.622 29.8975C212.149 29.8975 209.334 32.6157 209.334 35.9689C209.334 39.322 212.149 42.0403 215.622 42.0403Z" fill="white"/>
<path d="M248.749 42.0403C252.222 42.0403 255.037 39.322 255.037 35.9689C255.037 32.6157 252.222 29.8975 248.749 29.8975C245.276 29.8975 242.461 32.6157 242.461 35.9689C242.461 39.322 245.276 42.0403 248.749 42.0403Z" fill="white"/>
<path d="M215.436 50.8205C223.621 50.8205 230.256 44.1851 230.256 36C230.256 27.8148 223.621 21.1794 215.436 21.1794C207.251 21.1794 200.615 27.8148 200.615 36C200.615 44.1851 207.251 50.8205 215.436 50.8205Z" stroke="white" stroke-miterlimit="10"/>
<path d="M248.565 50.8205C256.75 50.8205 263.385 44.1851 263.385 36C263.385 27.8148 256.75 21.1794 248.565 21.1794C240.38 21.1794 233.744 27.8148 233.744 36C233.744 44.1851 240.38 50.8205 248.565 50.8205Z" stroke="white" stroke-miterlimit="10"/>
<defs>
<linearGradient id="paint0_linear_2476_145" x1="257.605" y1="12.4938" x2="205.556" y2="59.9259" gradientUnits="userSpaceOnUse">
<stop stop-color="#68DBFF"/>
<stop offset="0.75" stop-color="#0A5E95"/>
<stop offset="1" stop-color="#68DBFF"/>
</linearGradient>
</defs>
</svg>
