<svg width="122" height="122" viewBox="0 0 122 122" fill="none" xmlns="http://www.w3.org/2000/svg">
<g clip-path="url(#clip0_2586_140)">
<path d="M61 1.5C93.8609 1.5 120.5 28.1391 120.5 61C120.5 93.8609 93.8609 120.5 61 120.5C28.1391 120.5 1.5 93.8609 1.5 61C1.5 28.1391 28.1391 1.5 61 1.5Z" fill="#0B1E33" stroke="url(#paint0_linear_2586_140)" stroke-width="3"/>
<path d="M33.061 71.304C38.9854 71.304 43.7881 66.667 43.7881 60.9469C43.7881 55.2268 38.9854 50.5897 33.061 50.5897C27.1366 50.5897 22.334 55.2268 22.334 60.9469C22.334 66.667 27.1366 71.304 33.061 71.304Z" fill="white"/>
<path d="M89.5727 71.304C95.4971 71.304 100.3 66.667 100.3 60.9469C100.3 55.2268 95.4971 50.5897 89.5727 50.5897C83.6484 50.5897 78.8457 55.2268 78.8457 60.9469C78.8457 66.667 83.6484 71.304 89.5727 71.304Z" fill="white"/>
<path d="M32.743 86.282C46.7059 86.282 58.025 74.9628 58.025 60.9999C58.025 47.0371 46.7059 35.7179 32.743 35.7179C18.7801 35.7179 7.46094 47.0371 7.46094 60.9999C7.46094 74.9628 18.7801 86.282 32.743 86.282Z" stroke="white" stroke-width="2" stroke-miterlimit="10"/>
<path d="M89.2567 86.282C103.22 86.282 114.539 74.9628 114.539 60.9999C114.539 47.0371 103.22 35.7179 89.2567 35.7179C75.2938 35.7179 63.9746 47.0371 63.9746 60.9999C63.9746 74.9628 75.2938 86.282 89.2567 86.282Z" stroke="white" stroke-width="2" stroke-miterlimit="10"/>
</g>
<defs>
<linearGradient id="paint0_linear_2586_140" x1="104.679" y1="20.9012" x2="15.8889" y2="101.815" gradientUnits="userSpaceOnUse">
<stop stop-color="#68DBFF"/>
<stop offset="0.75" stop-color="#0A5E95"/>
<stop offset="1" stop-color="#68DBFF"/>
</linearGradient>
<clipPath id="clip0_2586_140">
<rect width="122" height="122" fill="white"/>
</clipPath>
</defs>
</svg>
