<svg width="395" height="276" viewBox="0 0 395 276" fill="none" xmlns="http://www.w3.org/2000/svg">
<path opacity="0.77" d="M136.852 68.0201C134.283 84.7833 131.064 101.444 127.231 117.966C123.326 134.522 118.997 150.95 112.682 166.815C109.524 174.268 100.357 196.42 89.5047 195.852C82.2605 195.472 85.5191 183.923 86.2653 181.204C90.0724 167.309 110.837 144.325 120.771 132.838C143.169 107.57 167.14 83.3285 187.804 56.61C189.483 54.367 191.106 52.0858 192.606 49.7479C194.09 47.4122 195.497 45.0022 196.423 42.539C196.873 41.3264 197.173 40.0408 197.071 39.0502C196.939 38.0214 196.434 37.6259 195.458 37.3131C193.095 36.6485 189.226 39.9072 184.619 46.5187C181.541 50.9377 177.203 58.1068 172.907 68.3076C153.237 115.02 142.242 165.115 129.738 214.18L125.72 230.638L125.411 230.576C135.404 180.726 147.368 131.119 163.734 82.9274C179.525 36.4429 190.614 32.2564 195.308 31.2476C200.248 30.186 201.183 35.615 199.707 41.297C198.833 44.9498 196.758 48.1807 194.817 51.1971C190.05 58.286 184.51 64.797 178.897 71.1864C160.176 92.2515 140.089 112.299 121.539 133.522C112.3 144.156 103.21 154.954 95.5419 166.76C92.83 171.172 85.1526 184.846 91.0162 187.85C99.4989 192.191 107.541 171.701 110.102 165.764C120.456 139.566 126.711 111.933 133.011 84.5295C134.224 79.0147 135.401 73.4927 136.542 67.9635L136.853 68.0149L136.852 68.0201Z" fill="#0A5E95"/>
<path d="M152.143 151.161C156.733 146.593 160.261 142.334 164.214 137.2C166.085 134.641 167.627 132.419 168.766 129.58C169.675 127.307 168.443 125.699 166.344 126.529C162.088 128.644 160.048 134.814 160.409 139.308C160.62 142.518 162.62 145.083 165.958 145.256C169.06 145.57 172.059 144.148 174.014 141.729C176.66 138.51 178.004 134.244 178.408 130.127C178.486 129.146 178.53 127.745 178.23 126.994C178.257 127.02 178.345 127.065 178.435 127.067C178.629 127.062 178.617 127.012 178.581 127.058C178.542 127.093 178.482 127.156 178.421 127.246C176.231 130.143 187.756 131.259 189.436 131.348L191.115 131.468C188.558 134.083 185.943 136.911 184.378 140.244C183.64 141.876 183.142 144.478 184.941 145.631C185.814 146.191 186.789 146.193 187.667 146.057C191.526 145.343 193.43 139.076 195.112 135.906C196.347 133.451 198.157 129.529 201.564 130.381C207.129 132.173 206.581 139.852 205.248 144.362C204.713 145.992 203.441 149.442 201.136 148.247C199.341 146.94 200.289 144.229 200.786 142.597C202.553 137.445 209.437 126.673 215.67 132.039C217.544 133.726 218.067 136.393 217.873 138.761C217.684 141.076 217 143.266 215.956 145.304C215.209 146.741 213.234 149.928 211.37 148.055C210.25 146.368 211.8 143.617 212.593 142.086C214.347 139.124 216.583 136.424 219.93 135.055C223.393 133.586 227.134 135.635 228.674 138.971C229.198 140.046 229.627 143.048 229.908 144.084C230.373 145.802 231.394 147.715 232.925 147.506C236.081 146.769 239.455 140.598 240.715 137.746C241.066 136.953 241.328 135.879 241.063 135.44C240.729 134.886 240.083 134.259 238.609 135.556C232.678 140.8 238.038 148.42 244.956 146.14C247.876 145.168 250.998 140.876 251.93 139.261C253.101 137.232 254.256 134.584 254.013 133.469C253.988 133.405 253.953 133.366 253.976 133.387C253.994 133.401 254.027 133.424 254.111 133.435C254.183 133.45 254.276 133.409 254.315 133.379C254.393 133.309 254.358 133.324 254.349 133.37C254.335 134.643 255.363 135.69 256.222 136.644C258.467 139 261.537 140.358 263.734 142.791C267.418 146.791 263.716 148.973 259.705 149.673C194.25 154.924 128.346 161.945 62.606 161.44C46.4165 160.996 29.9437 160.683 14.1634 156.632C13.0274 156.234 11.7967 155.962 10.8295 155.093C10.6709 154.922 10.4618 154.709 10.3505 154.274C10.301 154.066 10.3082 153.788 10.3813 153.583C10.5151 153.154 10.9156 152.784 11.2266 152.621C12.9484 151.748 14.8907 151.648 16.73 151.393C18.9122 151.164 21.0801 151.034 23.251 150.942C62.1458 150.065 100.998 153.666 139.639 157.708C216.784 166.562 293.689 180.396 367.76 204.031L367.698 204.233C301.591 184.348 233.497 171.731 165.084 162.969C118.057 157.398 70.7342 152.214 23.3307 152.904C21.1875 152.991 19.0495 153.105 16.9332 153.326C15.3174 153.534 13.6532 153.636 12.197 154.278C12.1311 154.313 12.0971 154.349 12.1301 154.318C12.1383 154.304 12.1795 154.259 12.2083 154.168C12.2351 154.087 12.2402 153.954 12.2237 153.876C12.1774 153.706 12.1444 153.71 12.1671 153.731C12.2299 153.791 12.4132 153.919 12.6079 154.017C13.2743 154.354 13.9767 154.59 14.709 154.812C21.9204 156.83 29.3994 157.723 36.8455 158.458C71.2126 161.298 105.812 159.811 140.222 158.167C174.075 156.396 209.644 153.349 243.46 150.151C247.726 149.646 252.105 149.652 256.366 149.259C259.435 148.906 267.277 147.845 262.98 143.487C260.763 141.126 257.678 139.786 255.42 137.443C254.395 136.328 252.966 134.852 253.205 133.115C253.258 132.906 253.33 132.652 253.633 132.423C253.778 132.313 254.012 132.241 254.217 132.261C255.093 132.377 255.3 133.405 255.274 134.075C255.215 135.333 254.767 136.396 254.281 137.409C253.261 139.408 251.996 141.187 250.504 142.868C249.003 144.509 247.167 145.954 244.97 146.716C238.646 149.104 232.154 143.08 236.062 136.779C238.106 133.489 240.464 132.298 242.129 133.718C242.661 134.194 242.677 134.969 242.627 135.517C242.533 136.415 242.226 137.259 241.903 138.069C240.625 141.255 235.005 150.634 230.83 147.431C228.159 144.636 229.036 139.896 225.81 137.574C222.313 134.785 218.312 137.391 215.934 140.454C214.695 142.018 213.562 143.861 212.995 145.758C212.925 146.109 212.776 146.615 212.845 146.913C212.853 146.957 212.866 146.944 212.823 146.892C212.776 146.829 212.681 146.773 212.592 146.76C212.396 146.748 212.547 146.531 212.642 146.668C213.804 148.358 216.51 141.673 216.793 138.91C217.099 136.146 216.426 132.892 212.112 132.454C209.194 132.156 207.061 135.386 205.365 137.685C203.743 140.148 202.059 143.087 201.9 146.03C201.922 146.292 201.932 146.594 202.082 146.726C202.091 146.733 202.044 146.702 202.005 146.711C205.096 145.95 207.313 135.061 202.264 132.617C199.056 131.065 197.716 134.534 196.607 136.655C195.141 139.546 193.898 142.847 191.401 145.162C189.146 147.365 185.053 147.374 182.901 145.041C179.947 141.139 186.217 134.356 188.817 131.578L189.321 132.917C187.114 132.734 184.96 132.443 182.795 131.968C180.603 131.391 175.991 130.46 176.779 127.315C176.988 126.751 177.227 126.386 177.65 125.983C177.815 125.855 178.055 125.645 178.523 125.659C181.311 126.07 179.023 134.962 178.252 136.727C176.72 140.865 173.819 145.094 169.252 146.166C164.139 147.343 159.707 144.92 159.358 139.399C159.111 134.922 160.621 130.442 163.482 127.003C164.227 126.166 165.103 125.397 166.205 124.947C168.868 123.919 171.426 125.646 170.548 128.596C169.63 131.8 167.525 134.457 165.56 137.056C164.218 138.766 162.807 140.414 161.355 142.027C158.449 145.242 155.411 148.334 152.267 151.314L152.121 151.162L152.143 151.161Z" fill="#0A5E95"/>
</svg>
